<svg width="25" height="26" viewBox="0 0 25 26" fill="none" xmlns="http://www.w3.org/2000/svg">
<path d="M8.96153 10.3462C11.4043 10.3462 13.3846 8.36587 13.3846 5.92308C13.3846 3.48028 11.4043 1.5 8.96153 1.5C6.51873 1.5 4.53845 3.48028 4.53845 5.92308C4.53845 8.36587 6.51873 10.3462 8.96153 10.3462Z" stroke="#828895" stroke-width="2" stroke-linecap="round" stroke-linejoin="round"/>
<path d="M8.96153 10.3462C11.4043 10.3462 13.3846 8.36587 13.3846 5.92308C13.3846 3.48028 11.4043 1.5 8.96153 1.5C6.51873 1.5 4.53845 3.48028 4.53845 5.92308C4.53845 8.36587 6.51873 10.3462 8.96153 10.3462Z" stroke="white" stroke-width="2" stroke-linecap="round" stroke-linejoin="round"/>
<path d="M8.96153 10.3462C11.4043 10.3462 13.3846 8.36587 13.3846 5.92308C13.3846 3.48028 11.4043 1.5 8.96153 1.5C6.51873 1.5 4.53845 3.48028 4.53845 5.92308C4.53845 8.36587 6.51873 10.3462 8.96153 10.3462Z" stroke="#285449" stroke-width="2" stroke-linecap="round" stroke-linejoin="round"/>
<path d="M11.6154 22.731H1V21.7719C1.01408 20.4234 1.36973 19.1004 2.03371 17.9266C2.6977 16.7528 3.64836 15.7664 4.79689 15.0596C5.94544 14.3528 7.25439 13.9487 8.60146 13.8849C9.94856 13.8211 11.2898 14.0998 12.5 14.6949" stroke="#828895" stroke-width="2" stroke-linecap="round" stroke-linejoin="round"/>
<path d="M11.6154 22.731H1V21.7719C1.01408 20.4234 1.36973 19.1004 2.03371 17.9266C2.6977 16.7528 3.64836 15.7664 4.79689 15.0596C5.94544 14.3528 7.25439 13.9487 8.60146 13.8849C9.94856 13.8211 11.2898 14.0998 12.5 14.6949" stroke="white" stroke-width="2" stroke-linecap="round" stroke-linejoin="round"/>
<path d="M11.6154 22.731H1V21.7719C1.01408 20.4234 1.36973 19.1004 2.03371 17.9266C2.6977 16.7528 3.64836 15.7664 4.79689 15.0596C5.94544 14.3528 7.25439 13.9487 8.60146 13.8849C9.94856 13.8211 11.2898 14.0998 12.5 14.6949" stroke="#285449" stroke-width="2" stroke-linecap="round" stroke-linejoin="round"/>
<path d="M18.6923 13.8848V24.5002" stroke="#828895" stroke-width="2" stroke-linecap="round" stroke-linejoin="round"/>
<path d="M18.6923 13.8848V24.5002" stroke="white" stroke-width="2" stroke-linecap="round" stroke-linejoin="round"/>
<path d="M18.6923 13.8848V24.5002" stroke="#285449" stroke-width="2" stroke-linecap="round" stroke-linejoin="round"/>
<path d="M13.3846 19.1924H24" stroke="#828895" stroke-width="2" stroke-linecap="round" stroke-linejoin="round"/>
<path d="M13.3846 19.1924H24" stroke="white" stroke-width="2" stroke-linecap="round" stroke-linejoin="round"/>
<path d="M13.3846 19.1924H24" stroke="#285449" stroke-width="2" stroke-linecap="round" stroke-linejoin="round"/>
</svg>
