<svg width="25" height="25" viewBox="0 0 25 25" fill="none" xmlns="http://www.w3.org/2000/svg">
<path d="M12.5 14.269C14.9428 14.269 16.9231 12.2887 16.9231 9.84593C16.9231 7.40313 14.9428 5.42285 12.5 5.42285C10.0572 5.42285 8.07693 7.40313 8.07693 9.84593C8.07693 12.2887 10.0572 14.269 12.5 14.269Z" stroke="#828895" stroke-width="2" stroke-linecap="round" stroke-linejoin="round"/>
<path d="M12.5 14.269C14.9428 14.269 16.9231 12.2887 16.9231 9.84593C16.9231 7.40313 14.9428 5.42285 12.5 5.42285C10.0572 5.42285 8.07693 7.40313 8.07693 9.84593C8.07693 12.2887 10.0572 14.269 12.5 14.269Z" stroke="white" stroke-width="2" stroke-linecap="round" stroke-linejoin="round"/>
<path d="M4.94535 21.1696C5.73485 19.8736 6.84446 18.8025 8.16749 18.0594C9.49052 17.3161 10.9825 16.9258 12.5 16.9258C14.0175 16.9258 15.5094 17.3161 16.8324 18.0594C18.1555 18.8025 19.265 19.8736 20.0546 21.1696" stroke="#828895" stroke-width="2" stroke-linecap="round" stroke-linejoin="round"/>
<path d="M4.94535 21.1696C5.73485 19.8736 6.84446 18.8025 8.16749 18.0594C9.49052 17.3161 10.9825 16.9258 12.5 16.9258C14.0175 16.9258 15.5094 17.3161 16.8324 18.0594C18.1555 18.8025 19.265 19.8736 20.0546 21.1696" stroke="white" stroke-width="2" stroke-linecap="round" stroke-linejoin="round"/>
<path d="M12.5 24C18.8514 24 24 18.8514 24 12.5C24 6.14873 18.8514 1 12.5 1C6.14873 1 1 6.14873 1 12.5C1 18.8514 6.14873 24 12.5 24Z" stroke="#828895" stroke-width="2" stroke-linecap="round" stroke-linejoin="round"/>
<path d="M12.5 24C18.8514 24 24 18.8514 24 12.5C24 6.14873 18.8514 1 12.5 1C6.14873 1 1 6.14873 1 12.5C1 18.8514 6.14873 24 12.5 24Z" stroke="white" stroke-width="2" stroke-linecap="round" stroke-linejoin="round"/>
</svg>
